<svg id="Capa_1" enable-background="new 0 0 512 512" height="512" viewBox="0 0 512 512" width="512" xmlns="http://www.w3.org/2000/svg"><g><path d="m453.547 393.396c10.29-10.551 16.648-24.955 16.648-40.823 0-32.267-26.25-58.517-58.517-58.517s-58.517 26.25-58.517 58.517c0 15.87 6.359 30.275 16.651 40.826-4.04 1.856-7.958 3.981-11.732 6.37-13.812-16.928-31.858-30.272-52.512-38.392 15.851-13.336 25.948-33.301 25.948-55.589 0-9.243-1.754-18.08-4.916-26.219l99.779-93.717c8.311 4.826 17.951 7.604 28.233 7.604 31.108 0 56.416-25.308 56.416-56.416s-25.308-56.416-56.416-56.416c-31.109 0-56.416 25.308-56.416 56.416 0 9.984 2.618 19.363 7.186 27.507l-95.438 89.641c-13.132-12.998-31.177-21.042-51.07-21.042-22.896 0-43.338 10.658-56.662 27.261l-96.736-95.564c4.673-8.213 7.357-17.698 7.357-27.803 0-31.108-25.308-56.416-56.416-56.416-31.109 0-56.417 25.308-56.417 56.416s25.308 56.416 56.416 56.416c10.164 0 19.699-2.715 27.944-7.438l103.924 102.665c-1.33 5.489-2.053 11.213-2.053 17.105 0 22.287 10.097 42.253 25.948 55.589-21.435 8.427-40.065 22.476-54.064 40.324-4.674-3.206-9.589-5.993-14.697-8.343 10.269-10.548 16.612-24.936 16.612-40.785 0-32.267-26.251-58.517-58.517-58.517s-58.517 26.25-58.517 58.517c0 15.868 6.358 30.272 16.648 40.823-34.469 15.896-58.454 50.775-58.454 91.157v27.262h510.81v-27.262c0-40.382-23.984-75.261-58.453-91.157zm-397.131-229.843c-14.619 0-26.513-11.893-26.513-26.513s11.894-26.513 26.513-26.513 26.513 11.893 26.513 26.513-11.893 26.513-26.513 26.513zm355.262 160.406c15.777 0 28.614 12.837 28.614 28.614s-12.836 28.614-28.614 28.614-28.614-12.836-28.614-28.614c0-15.777 12.837-28.614 28.614-28.614zm42.934-213.432c14.62 0 26.513 11.893 26.513 26.513s-11.893 26.513-26.513 26.513-26.513-11.893-26.513-26.513 11.893-26.513 26.513-26.513zm-195.738 152.523c23.566 0 42.739 19.172 42.739 42.739s-19.172 42.739-42.739 42.739-42.739-19.172-42.739-42.739 19.172-42.739 42.739-42.739zm-157.361 60.909c15.778 0 28.614 12.837 28.614 28.614s-12.836 28.614-28.614 28.614-28.614-12.836-28.614-28.614c0-15.777 12.836-28.614 28.614-28.614zm-70.37 157.952c1.393-37.611 32.425-67.777 70.37-67.777 14.889 0 29.104 4.618 40.985 13.152-7.459 16.23-11.627 34.274-11.627 53.274v1.35h-99.728zm325.83 0h-196.199v-1.35c0-54.092 44.007-98.099 98.099-98.099s98.099 44.007 98.099 98.099v1.35zm29.903 0v-1.35c0-19.908-4.57-38.769-12.714-55.59 11.163-7.035 24.134-10.837 37.515-10.837 37.945 0 68.976 30.166 70.37 67.777z"/><g><g><g><path d="m226 108.501-22.353-19.864c13.205-14.86 32.141-23.383 51.951-23.383s38.746 8.523 51.951 23.383l-22.354 19.864c-7.535-8.48-18.323-13.344-29.598-13.344-11.273 0-22.062 4.863-29.597 13.344z"/></g><g><path d="m333.675 65.25c-19.857-22.345-48.315-35.161-78.077-35.161-29.763 0-58.221 12.816-78.078 35.161l-22.353-19.864c25.527-28.725 62.133-45.2 100.431-45.2s74.903 16.475 100.43 45.201z"/></g></g></g></g></svg>