<?xml version="1.0" encoding="iso-8859-1"?>
<!-- Generator: Adobe Illustrator 19.0.0, SVG Export Plug-In . SVG Version: 6.00 Build 0)  -->
<svg version="1.1" id="Capa_1" xmlns="http://www.w3.org/2000/svg" xmlns:xlink="http://www.w3.org/1999/xlink" x="0px" y="0px"
	 viewBox="0 0 218.453 218.453" style="enable-background:new 0 0 218.453 218.453;" xml:space="preserve">
<g>
	<g>
		<path d="M186.027,13.653h-153.6C14.546,13.653,0,28.199,0,46.08s14.546,32.427,32.427,32.427h3.014
			c1.884,0,3.413-1.529,3.413-3.413c0-1.884-1.529-3.413-3.413-3.413h-3.014c-14.116,0-25.6-11.484-25.6-25.6s11.484-25.6,25.6-25.6
			h153.6c14.116,0,25.6,11.484,25.6,25.6s-11.484,25.6-25.6,25.6H56.431c-1.884,0-3.413,1.529-3.413,3.413
			c0,1.884,1.529,3.413,3.413,3.413h129.596c17.881,0,32.427-14.546,32.427-32.427S203.907,13.653,186.027,13.653z"/>
	</g>
</g>
<g>
	<g>
		<polygon points="83.32,34.553 83.32,30.203 65.546,30.203 65.546,61.696 70.653,61.696 70.653,61.696 70.653,48.77 82.523,48.77 
			82.523,44.397 70.653,44.397 70.653,34.553 		"/>
	</g>
</g>
<g>
	<g>
		<path d="M103.764,47.759c4.077-1.666,6.117-4.46,6.117-8.38c0-3.074-0.976-5.373-2.93-6.893c-1.952-1.524-4.96-2.284-9.027-2.284
			h-8.897v31.493h5.151v-12.58h5.082l7.54,12.58h5.861L103.764,47.759z M97.754,44.849h-3.575V34.553h3.403
			c2.34,0,4.094,0.387,5.257,1.164c1.162,0.776,1.742,2.053,1.742,3.833c0,1.753-0.536,3.074-1.613,3.966
			C101.888,44.406,100.151,44.849,97.754,44.849z"/>
	</g>
</g>
<g>
	<g>
		<polygon points="135.043,34.553 135.043,30.203 117.228,30.203 117.228,61.696 135.043,61.696 135.043,57.322 122.377,57.322 
			122.377,47.435 134.246,47.435 134.246,43.126 122.377,43.126 122.377,34.553 		"/>
	</g>
</g>
<g>
	<g>
		<polygon points="159.667,34.553 159.667,30.203 141.851,30.203 141.851,61.696 159.667,61.696 159.667,57.322 147,57.322 
			147,47.435 158.87,47.435 158.87,43.126 147,43.126 147,34.553 		"/>
	</g>
</g>
<g>
	<g>
		<path d="M82.024,92.16l-23.997-3.012V59.733c0-6.588-5.361-11.947-11.947-11.947c-6.586,0-11.947,5.359-11.947,11.947v80.676
			c0,6.832,4.094,12.793,10.24,15.319v45.659c0,1.884,1.529,3.413,3.413,3.413H92.16c1.884,0,3.413-1.529,3.413-3.413v-45.66
			c6.146-2.526,10.24-8.487,10.24-15.319v-24.236C105.813,103.004,95.162,92.279,82.024,92.16z M98.987,140.409
			c0,4.57-3.122,8.48-7.59,9.506c-1.551,0.355-2.65,1.736-2.65,3.326v44.732H51.2v-44.732c0-1.591-1.099-2.971-2.65-3.326
			c-4.468-1.026-7.59-4.934-7.59-9.506V59.733c0-2.823,2.297-5.12,5.12-5.12s5.12,2.297,5.12,5.12V92.16
			c0,1.72,1.28,3.173,2.988,3.386l27.189,3.413c0.142,0.019,0.283,0.027,0.425,0.027c9.475,0,17.184,7.709,17.184,17.186V140.409z"
			/>
	</g>
</g>
<g>
	<g>
		<path d="M54.613,88.747c-1.884,0-3.413,1.529-3.413,3.413v17.067c0,1.884,1.529,3.413,3.413,3.413s3.413-1.529,3.413-3.413V92.16
			C58.027,90.276,56.497,88.747,54.613,88.747z"/>
	</g>
</g>
<g>
	<g>
		<path d="M68.267,92.16c-1.884,0-3.413,1.529-3.413,3.413v10.24c0,1.884,1.529,3.413,3.413,3.413s3.413-1.529,3.413-3.413v-10.24
			C71.68,93.689,70.151,92.16,68.267,92.16z"/>
	</g>
</g>
<g>
	<g>
		<path d="M81.92,92.16c-1.884,0-3.413,1.529-3.413,3.413v10.24c0,1.884,1.529,3.413,3.413,3.413c1.884,0,3.413-1.529,3.413-3.413
			v-10.24C85.333,93.689,83.804,92.16,81.92,92.16z"/>
	</g>
</g>
<g>
	<g>
		<path d="M143.773,97.987l-9.653-9.655c-1.333-1.333-3.494-1.331-4.826,0c-1.333,1.335-1.333,3.495,0,4.828l9.653,9.655
			c0.667,0.667,1.539,1,2.413,1c0.874,0,1.748-0.334,2.413-1C145.106,101.48,145.106,99.319,143.773,97.987z"/>
	</g>
</g>
<g>
	<g>
		<path d="M143.773,88.334c-1.333-1.333-3.494-1.333-4.826,0l-9.653,9.655c-1.333,1.335-1.333,3.495,0,4.828
			c0.667,0.666,1.539,0.998,2.413,0.998s1.746-0.334,2.413-0.998l9.653-9.655C145.106,91.827,145.106,89.667,143.773,88.334z"/>
	</g>
</g>
<g>
	<g>
		<path d="M177.906,132.12l-9.653-9.655c-1.333-1.333-3.494-1.331-4.826,0c-1.333,1.335-1.333,3.495,0,4.828l9.653,9.655
			c0.667,0.667,1.539,1,2.413,1c0.874,0,1.748-0.335,2.413-1C179.239,135.613,179.239,133.453,177.906,132.12z"/>
	</g>
</g>
<g>
	<g>
		<path d="M177.906,122.467c-1.333-1.333-3.494-1.333-4.826,0l-9.653,9.655c-1.333,1.335-1.333,3.495,0,4.828
			c0.667,0.666,1.539,0.998,2.413,0.998c0.874,0,1.746-0.335,2.413-0.998l9.653-9.655
			C179.239,125.961,179.239,123.8,177.906,122.467z"/>
	</g>
</g>
<g>
</g>
<g>
</g>
<g>
</g>
<g>
</g>
<g>
</g>
<g>
</g>
<g>
</g>
<g>
</g>
<g>
</g>
<g>
</g>
<g>
</g>
<g>
</g>
<g>
</g>
<g>
</g>
<g>
</g>
</svg>
