<?xml version="1.0" encoding="iso-8859-1"?>
<!-- Generator: Adobe Illustrator 19.0.0, SVG Export Plug-In . SVG Version: 6.00 Build 0)  -->
<svg version="1.1" id="Capa_1" xmlns="http://www.w3.org/2000/svg" xmlns:xlink="http://www.w3.org/1999/xlink" x="0px" y="0px"
	 viewBox="0 0 468.428 468.428" style="enable-background:new 0 0 468.428 468.428;" xml:space="preserve">
<g>
	<path style="fill:#E56353;" d="M161.81,468.335c14.361,0.624,28.722-1.873,42.459-8.741c45.58-21.229,64.937-75.551,43.707-121.132
		l-76.176,35.59C186.785,405.896,181.79,442.111,161.81,468.335z"/>
	<path style="fill:#E56353;" d="M0.092,306.618c-0.624-14.361,1.873-28.722,8.741-42.459c21.229-45.58,75.551-64.937,121.132-43.707
		l-35.59,76.176C62.531,281.643,26.317,286.638,0.092,306.618z"/>
</g>
<path style="fill:#FCD462;" d="M130.59,407.145C111.858,426.501,9.458,458.969,9.458,458.969s32.468-101.776,51.824-121.132
	s50.576-19.356,69.307,0C149.946,356.569,149.946,387.789,130.59,407.145z"/>
<path style="fill:#F6C358;" d="M130.59,390.911c-14.985,14.985-93.034,39.337-93.034,39.337s24.976-78.049,39.337-93.034
	c14.985-14.985,38.712-14.985,53.073,0C145.575,352.199,145.575,375.926,130.59,390.911z"/>
<g>
	<path style="fill:#E1E6E9;" d="M119.351,206.716l142.985,142.985c6.868-3.122,13.112-6.244,19.98-9.99L129.341,186.735
		C125.595,192.979,122.473,199.848,119.351,206.716z"/>
	<path style="fill:#E1E6E9;" d="M88.756,311.613c-0.624,4.371,1.249,8.741,3.746,11.863l51.824,51.824
		c3.122,3.122,7.493,4.371,11.863,3.746c29.971-3.746,58.068-11.239,84.917-21.854L110.61,227.321
		C99.995,254.169,92.502,282.267,88.756,311.613z"/>
	<path style="fill:#E1E6E9;" d="M139.956,168.004l160.468,160.468c23.102-14.361,44.332-31.22,63.063-49.951
		c39.337-39.337,69.307-88.039,86.79-142.985L332.892,18.15C251.722,43.75,183.663,97.448,139.956,168.004z"/>
</g>
<path style="fill:#E56353;" d="M454.649,0.043c-43.083-0.624-83.668,5.62-121.756,18.107l117.385,117.385
	c12.488-38.088,18.732-78.673,18.107-121.756C468.385,6.287,462.141,0.043,454.649,0.043z"/>
<g>
	<path style="fill:#64798A;" d="M129.341,186.735l152.351,152.351c6.244-3.746,12.488-6.868,18.732-10.615L139.956,168.004
		C136.21,174.248,132.463,180.491,129.341,186.735z"/>
	<path style="fill:#64798A;" d="M110.61,227.321l130.498,130.498c6.868-2.498,13.737-5.62,20.605-8.741L119.351,206.716
		C116.229,213.584,113.107,220.452,110.61,227.321z"/>
</g>
<ellipse style="fill:#27A2DB;" cx="302.102" cy="166.144" rx="63.063" ry="63.063"/>
<ellipse style="fill:#EBF0F3;" cx="302.102" cy="166.144" rx="41.834" ry="41.834"/>
<g>
</g>
<g>
</g>
<g>
</g>
<g>
</g>
<g>
</g>
<g>
</g>
<g>
</g>
<g>
</g>
<g>
</g>
<g>
</g>
<g>
</g>
<g>
</g>
<g>
</g>
<g>
</g>
<g>
</g>
</svg>
